<svg width="205" height="24" viewBox="0 0 205 24" fill="none" xmlns="http://www.w3.org/2000/svg">
<g clip-path="url(#clip0_333_6)">
<path fill-rule="evenodd" clip-rule="evenodd" d="M8 4.83333H14V9.27777V13.7222H8V18.1667H2V13.7222V9.27777H8V4.83333Z" fill="#121217"/>
</g>
<path d="M43.844 13.848C43.616 14.676 43.25 15.36 42.746 15.9C42.242 16.428 41.642 16.818 40.946 17.07C40.25 17.31 39.482 17.43 38.642 17.43C37.442 17.43 36.404 17.19 35.528 16.71C34.652 16.218 33.98 15.516 33.512 14.604C33.044 13.692 32.81 12.594 32.81 11.31C32.81 10.026 33.044 8.928 33.512 8.016C33.98 7.104 34.652 6.408 35.528 5.928C36.404 5.436 37.436 5.19 38.624 5.19C39.452 5.19 40.214 5.31 40.91 5.55C41.606 5.778 42.194 6.132 42.674 6.612C43.154 7.092 43.496 7.71 43.7 8.466L40.982 9.564C40.814 8.82 40.538 8.31 40.154 8.034C39.782 7.758 39.308 7.62 38.732 7.62C38.168 7.62 37.676 7.758 37.256 8.034C36.848 8.31 36.53 8.724 36.302 9.276C36.086 9.816 35.978 10.494 35.978 11.31C35.978 12.114 36.08 12.792 36.284 13.344C36.488 13.896 36.794 14.31 37.202 14.586C37.622 14.862 38.138 15 38.75 15C39.326 15 39.812 14.844 40.208 14.532C40.616 14.208 40.892 13.716 41.036 13.056L43.844 13.848ZM45.08 17.25V4.434H48.14V9.888C48.404 9.288 48.782 8.838 49.274 8.538C49.766 8.226 50.336 8.07 50.984 8.07C51.608 8.07 52.148 8.19 52.604 8.43C53.072 8.67 53.438 9.024 53.702 9.492C53.966 9.96 54.098 10.548 54.098 11.256V17.25H51.038V12.102C51.038 11.454 50.918 11.01 50.678 10.77C50.45 10.518 50.144 10.392 49.76 10.392C49.472 10.392 49.202 10.464 48.95 10.608C48.698 10.752 48.5 10.98 48.356 11.292C48.212 11.604 48.14 12.012 48.14 12.516V17.25H45.08ZM57.5021 7.206C56.8781 7.206 56.4221 7.092 56.1341 6.864C55.8581 6.624 55.7201 6.252 55.7201 5.748C55.7201 5.232 55.8581 4.86 56.1341 4.632C56.4221 4.392 56.8781 4.272 57.5021 4.272C58.1141 4.272 58.5641 4.392 58.8521 4.632C59.1401 4.86 59.2841 5.232 59.2841 5.748C59.2841 6.252 59.1401 6.624 58.8521 6.864C58.5641 7.092 58.1141 7.206 57.5021 7.206ZM59.0321 8.25V17.25H55.9721V8.25H59.0321ZM63.9643 4.434V14.19C63.9643 14.586 64.0303 14.868 64.1623 15.036C64.2943 15.204 64.5163 15.288 64.8283 15.288C65.0083 15.288 65.1583 15.276 65.2783 15.252C65.3983 15.228 65.5423 15.192 65.7103 15.144L65.5123 16.98C65.2963 17.112 65.0143 17.22 64.6663 17.304C64.3183 17.388 63.9763 17.43 63.6403 17.43C62.6803 17.43 61.9843 17.208 61.5523 16.764C61.1203 16.32 60.9043 15.594 60.9043 14.586V4.434H63.9643ZM69.871 17.43C69.127 17.43 68.473 17.25 67.909 16.89C67.357 16.518 66.925 15.984 66.613 15.288C66.313 14.592 66.163 13.758 66.163 12.786C66.163 11.778 66.319 10.926 66.631 10.23C66.955 9.534 67.399 9 67.963 8.628C68.539 8.256 69.199 8.07 69.943 8.07C70.759 8.07 71.413 8.322 71.905 8.826C72.409 9.318 72.733 9.948 72.877 10.716L72.589 11.094V4.434H75.649V17.25H72.913L72.715 14.19L73.075 14.46C73.003 15.06 72.817 15.582 72.517 16.026C72.229 16.47 71.857 16.818 71.401 17.07C70.957 17.31 70.447 17.43 69.871 17.43ZM70.933 15.18C71.281 15.18 71.575 15.09 71.815 14.91C72.067 14.718 72.259 14.436 72.391 14.064C72.523 13.692 72.589 13.236 72.589 12.696C72.589 12.192 72.523 11.766 72.391 11.418C72.271 11.058 72.085 10.788 71.833 10.608C71.593 10.416 71.299 10.32 70.951 10.32C70.423 10.32 70.003 10.518 69.691 10.914C69.391 11.298 69.241 11.91 69.241 12.75C69.241 13.59 69.391 14.208 69.691 14.604C69.991 14.988 70.405 15.18 70.933 15.18ZM81.8402 8.07C82.7522 8.07 83.5082 8.202 84.1082 8.466C84.7202 8.718 85.1942 9.06 85.5302 9.492C85.8782 9.912 86.0942 10.368 86.1782 10.86L83.3522 11.796C83.2682 11.28 83.1122 10.896 82.8842 10.644C82.6682 10.38 82.3502 10.248 81.9302 10.248C81.5462 10.248 81.2222 10.338 80.9582 10.518C80.7062 10.686 80.5142 10.962 80.3822 11.346C80.2502 11.718 80.1842 12.198 80.1842 12.786C80.1842 13.374 80.2562 13.854 80.4002 14.226C80.5442 14.586 80.7482 14.85 81.0122 15.018C81.2762 15.174 81.5882 15.252 81.9482 15.252C82.2482 15.252 82.4942 15.198 82.6862 15.09C82.8902 14.97 83.0582 14.802 83.1902 14.586C83.3222 14.37 83.4062 14.106 83.4422 13.794L86.1962 14.676C86.1122 15.204 85.8842 15.678 85.5122 16.098C85.1522 16.506 84.6722 16.83 84.0722 17.07C83.4722 17.31 82.7702 17.43 81.9662 17.43C80.9822 17.43 80.1242 17.25 79.3922 16.89C78.6602 16.518 78.0962 15.984 77.7002 15.288C77.3042 14.58 77.1062 13.734 77.1062 12.75C77.1062 11.766 77.3042 10.926 77.7002 10.23C78.0962 9.522 78.6482 8.988 79.3562 8.628C80.0762 8.256 80.9042 8.07 81.8402 8.07ZM92.5391 11.544C92.5391 11.124 92.4191 10.794 92.1791 10.554C91.9511 10.302 91.6391 10.176 91.2431 10.176C90.8471 10.176 90.5051 10.278 90.2171 10.482C89.9411 10.674 89.7491 11.022 89.6411 11.526L87.0491 10.914C87.2171 10.05 87.6611 9.36 88.3811 8.844C89.1011 8.328 90.1151 8.07 91.4231 8.07C92.2991 8.07 93.0431 8.202 93.6551 8.466C94.2791 8.718 94.7531 9.102 95.0771 9.618C95.4131 10.122 95.5811 10.746 95.5811 11.49V14.784C95.5811 15.252 95.7911 15.486 96.2111 15.486C96.4271 15.486 96.6011 15.462 96.7331 15.414L96.5531 17.16C96.1931 17.328 95.7551 17.412 95.2391 17.412C94.7711 17.412 94.3571 17.34 93.9971 17.196C93.6371 17.04 93.3551 16.812 93.1511 16.512C92.9471 16.2 92.8451 15.81 92.8451 15.342V15.234L93.1871 15.108C93.1871 15.624 93.0311 16.056 92.7191 16.404C92.4191 16.752 92.0231 17.01 91.5311 17.178C91.0511 17.346 90.5471 17.43 90.0191 17.43C89.4071 17.43 88.8731 17.334 88.4171 17.142C87.9611 16.95 87.6071 16.674 87.3551 16.314C87.1151 15.942 86.9951 15.486 86.9951 14.946C86.9951 14.298 87.1871 13.764 87.5711 13.344C87.9671 12.912 88.5851 12.612 89.4251 12.444L92.8271 11.742L92.8091 13.362L91.0811 13.722C90.7211 13.794 90.4511 13.902 90.2711 14.046C90.1031 14.178 90.0191 14.382 90.0191 14.658C90.0191 14.922 90.1151 15.12 90.3071 15.252C90.4991 15.384 90.7271 15.45 90.9911 15.45C91.1951 15.45 91.3871 15.42 91.5671 15.36C91.7591 15.3 91.9271 15.21 92.0711 15.09C92.2151 14.958 92.3291 14.796 92.4131 14.604C92.4971 14.412 92.5391 14.184 92.5391 13.92V11.544ZM97.6709 17.25V8.25H100.371L100.497 10.194C100.725 9.522 101.061 9 101.505 8.628C101.961 8.256 102.537 8.07 103.233 8.07C103.461 8.07 103.653 8.088 103.809 8.124C103.977 8.16 104.109 8.208 104.205 8.268L103.899 10.788C103.779 10.74 103.623 10.704 103.431 10.68C103.251 10.644 103.029 10.626 102.765 10.626C102.405 10.626 102.069 10.704 101.757 10.86C101.445 11.016 101.193 11.25 101.001 11.562C100.821 11.862 100.731 12.246 100.731 12.714V17.25H97.6709ZM109.422 17.43C108.426 17.43 107.562 17.244 106.83 16.872C106.11 16.5 105.552 15.966 105.156 15.27C104.76 14.574 104.562 13.734 104.562 12.75C104.562 11.766 104.76 10.926 105.156 10.23C105.552 9.534 106.104 9 106.812 8.628C107.532 8.256 108.354 8.07 109.278 8.07C110.226 8.07 111.03 8.256 111.69 8.628C112.362 8.988 112.872 9.492 113.22 10.14C113.568 10.776 113.742 11.508 113.742 12.336C113.742 12.552 113.736 12.768 113.724 12.984C113.712 13.2 113.694 13.38 113.67 13.524H106.542V11.886H112.32L110.862 12.444C110.862 11.724 110.73 11.172 110.466 10.788C110.214 10.404 109.818 10.212 109.278 10.212C108.894 10.212 108.564 10.302 108.288 10.482C108.024 10.662 107.82 10.944 107.676 11.328C107.544 11.712 107.478 12.204 107.478 12.804C107.478 13.392 107.556 13.872 107.712 14.244C107.868 14.604 108.09 14.868 108.378 15.036C108.666 15.192 109.014 15.27 109.422 15.27C109.878 15.27 110.238 15.18 110.502 15C110.778 14.82 110.982 14.568 111.114 14.244L113.562 15.054C113.394 15.57 113.1 16.008 112.68 16.368C112.272 16.716 111.78 16.98 111.204 17.16C110.64 17.34 110.046 17.43 109.422 17.43ZM130.81 13.848C130.582 14.676 130.216 15.36 129.712 15.9C129.208 16.428 128.608 16.818 127.912 17.07C127.216 17.31 126.448 17.43 125.608 17.43C124.408 17.43 123.37 17.19 122.494 16.71C121.618 16.218 120.946 15.516 120.478 14.604C120.01 13.692 119.776 12.594 119.776 11.31C119.776 10.026 120.01 8.928 120.478 8.016C120.946 7.104 121.618 6.408 122.494 5.928C123.37 5.436 124.402 5.19 125.59 5.19C126.418 5.19 127.18 5.31 127.876 5.55C128.572 5.778 129.16 6.132 129.64 6.612C130.12 7.092 130.462 7.71 130.666 8.466L127.948 9.564C127.78 8.82 127.504 8.31 127.12 8.034C126.748 7.758 126.274 7.62 125.698 7.62C125.134 7.62 124.642 7.758 124.222 8.034C123.814 8.31 123.496 8.724 123.268 9.276C123.052 9.816 122.944 10.494 122.944 11.31C122.944 12.114 123.046 12.792 123.25 13.344C123.454 13.896 123.76 14.31 124.168 14.586C124.588 14.862 125.104 15 125.716 15C126.292 15 126.778 14.844 127.174 14.532C127.582 14.208 127.858 13.716 128.002 13.056L130.81 13.848ZM136.33 8.07C137.278 8.07 138.106 8.256 138.814 8.628C139.534 8.988 140.092 9.522 140.488 10.23C140.896 10.926 141.1 11.766 141.1 12.75C141.1 13.734 140.896 14.58 140.488 15.288C140.092 15.984 139.534 16.518 138.814 16.89C138.106 17.25 137.278 17.43 136.33 17.43C135.406 17.43 134.584 17.25 133.864 16.89C133.144 16.518 132.58 15.984 132.172 15.288C131.776 14.58 131.578 13.734 131.578 12.75C131.578 11.766 131.776 10.926 132.172 10.23C132.58 9.522 133.144 8.988 133.864 8.628C134.584 8.256 135.406 8.07 136.33 8.07ZM136.33 10.248C135.982 10.248 135.682 10.332 135.43 10.5C135.178 10.668 134.986 10.938 134.854 11.31C134.722 11.682 134.656 12.162 134.656 12.75C134.656 13.338 134.722 13.818 134.854 14.19C134.986 14.55 135.178 14.82 135.43 15C135.682 15.168 135.982 15.252 136.33 15.252C136.69 15.252 136.996 15.168 137.248 15C137.5 14.82 137.692 14.55 137.824 14.19C137.956 13.818 138.022 13.338 138.022 12.75C138.022 12.162 137.956 11.682 137.824 11.31C137.692 10.938 137.5 10.668 137.248 10.5C136.996 10.332 136.69 10.248 136.33 10.248ZM146.295 17.43C145.311 17.43 144.441 17.304 143.685 17.052C142.941 16.8 142.341 16.386 141.885 15.81L143.451 14.172C143.727 14.568 144.105 14.88 144.585 15.108C145.065 15.324 145.593 15.432 146.169 15.432C146.589 15.432 146.919 15.372 147.159 15.252C147.399 15.12 147.519 14.952 147.519 14.748C147.519 14.544 147.393 14.376 147.141 14.244C146.889 14.1 146.433 13.968 145.773 13.848C144.477 13.608 143.547 13.26 142.983 12.804C142.419 12.348 142.137 11.754 142.137 11.022C142.137 10.53 142.293 10.062 142.605 9.618C142.929 9.162 143.409 8.79 144.045 8.502C144.693 8.214 145.503 8.07 146.475 8.07C146.763 8.07 147.111 8.094 147.519 8.142C147.927 8.19 148.317 8.286 148.689 8.43L148.797 9.132C148.593 9.024 148.383 8.886 148.167 8.718C147.963 8.55 147.789 8.346 147.645 8.106C147.501 7.854 147.429 7.578 147.429 7.278C147.429 6.582 147.597 6.012 147.933 5.568C148.269 5.112 148.719 4.776 149.283 4.56C149.859 4.332 150.501 4.218 151.209 4.218C151.905 4.218 152.541 4.332 153.117 4.56C153.693 4.776 154.149 5.13 154.485 5.622C154.821 6.114 154.989 6.78 154.989 7.62V14.046C154.989 14.478 155.091 14.79 155.295 14.982C155.511 15.162 155.805 15.252 156.177 15.252C156.453 15.252 156.693 15.222 156.897 15.162C157.113 15.09 157.305 14.988 157.473 14.856L157.779 16.746C157.491 16.962 157.113 17.13 156.645 17.25C156.189 17.37 155.721 17.43 155.241 17.43C154.569 17.43 153.981 17.334 153.477 17.142C152.985 16.95 152.601 16.644 152.325 16.224C152.061 15.804 151.929 15.246 151.929 14.55V8.16C151.929 7.536 151.809 7.104 151.569 6.864C151.329 6.612 151.053 6.486 150.741 6.486C150.405 6.486 150.147 6.594 149.967 6.81C149.787 7.014 149.697 7.302 149.697 7.674C149.697 8.01 149.751 8.334 149.859 8.646C149.967 8.946 150.189 9.3 150.525 9.708L148.995 11.166C148.743 10.746 148.401 10.458 147.969 10.302C147.537 10.146 147.081 10.068 146.601 10.068C146.301 10.068 146.043 10.104 145.827 10.176C145.623 10.236 145.467 10.32 145.359 10.428C145.251 10.536 145.197 10.656 145.197 10.788C145.197 10.98 145.317 11.136 145.557 11.256C145.797 11.376 146.259 11.496 146.943 11.616C148.215 11.82 149.139 12.138 149.715 12.57C150.303 12.99 150.597 13.608 150.597 14.424C150.597 14.976 150.435 15.48 150.111 15.936C149.799 16.392 149.325 16.758 148.689 17.034C148.065 17.298 147.267 17.43 146.295 17.43ZM152.325 10.428V8.25H157.689V10.428H152.325ZM162.585 17.43C161.685 17.43 160.845 17.286 160.065 16.998C159.297 16.698 158.661 16.272 158.157 15.72L159.597 14.028C159.897 14.412 160.293 14.736 160.785 15C161.289 15.252 161.847 15.378 162.459 15.378C162.831 15.378 163.137 15.324 163.377 15.216C163.617 15.108 163.737 14.94 163.737 14.712C163.737 14.544 163.677 14.412 163.557 14.316C163.437 14.208 163.197 14.118 162.837 14.046L161.577 13.794C160.449 13.566 159.645 13.23 159.165 12.786C158.697 12.33 158.463 11.736 158.463 11.004C158.463 10.512 158.613 10.044 158.913 9.6C159.213 9.144 159.675 8.778 160.299 8.502C160.923 8.214 161.721 8.07 162.693 8.07C163.605 8.07 164.409 8.202 165.105 8.466C165.801 8.73 166.353 9.114 166.761 9.618L165.303 11.274C165.015 10.914 164.643 10.632 164.187 10.428C163.731 10.224 163.275 10.122 162.819 10.122C162.531 10.122 162.285 10.152 162.081 10.212C161.889 10.26 161.745 10.332 161.649 10.428C161.553 10.524 161.505 10.644 161.505 10.788C161.505 10.944 161.577 11.082 161.721 11.202C161.877 11.31 162.159 11.406 162.567 11.49L164.205 11.814C165.129 11.982 165.795 12.288 166.203 12.732C166.611 13.176 166.815 13.71 166.815 14.334C166.815 14.922 166.659 15.45 166.347 15.918C166.035 16.386 165.567 16.758 164.943 17.034C164.319 17.298 163.533 17.43 162.585 17.43Z" fill="#121217"/>
<defs>
<clipPath id="clip0_333_6">
<rect width="16" height="16" fill="white" transform="translate(0 3.5)"/>
</clipPath>
</defs>
</svg>
